<svg width="597" height="544" viewBox="0 0 597 544" fill="none" xmlns="http://www.w3.org/2000/svg">
<path d="M585.409 437.732C576.589 455.929 561.647 472.22 542.148 486.17C445.754 555.346 238.178 568.8 113.651 486.17C93.0976 472.592 74.8386 456.363 59.7261 437.36C19.3641 386.706 -4.50591 309.191 1.16709 236.015C3.50759 205.961 7.02609 167.955 34.6161 134.94C90.2766 68.4135 192.964 83.4795 198.141 84.332C270.03 95.988 271.27 138.877 375.244 204.783C490.89 278.16 556.718 267.79 585.114 333.324C598.119 363.316 601.327 404.779 585.409 437.732Z" fill="#DFEAF7"/>
<path d="M214.928 461.23L239.046 352.978C245.091 325.838 263.272 302.959 288.367 290.963L359.543 256.909L432.563 287.289C461.92 299.503 483.372 325.403 489.898 356.527L511.846 461.23H214.928Z" fill="#3D71F2"/>
<path d="M314.438 426.603C314.438 426.603 333.472 401.648 342.632 403.244C351.793 404.841 368.703 434.694 368.703 434.694H444.204L446.327 415.582C446.327 415.582 494.625 424.34 511.877 461.23H322.932L314.438 426.603Z" fill="#FFB0B3"/>
<path d="M446.327 417.892C445.149 417.892 444.142 417.008 444.018 415.815L437.461 351.366C437.337 350.095 438.252 348.948 439.523 348.824C440.809 348.715 441.941 349.615 442.065 350.886L448.621 415.334C448.745 416.605 447.831 417.753 446.56 417.877C446.482 417.892 446.405 417.892 446.327 417.892Z" fill="#002D53"/>
<path d="M325.722 246.013V296.17C325.722 296.17 322.141 327.217 342.043 324.427C361.945 321.637 383.056 266.674 383.056 266.674L379.77 217.896L325.722 246.013Z" fill="#FFB0B3"/>
<path d="M382.328 255.638L325.753 291.908V245.997L379.739 217.865L382.328 255.638Z" fill="#FF7A72"/>
<path d="M382.783 210.815C397.623 172.479 387.927 132.991 361.127 122.617C334.326 112.242 300.57 134.91 285.731 173.247C270.891 211.583 280.587 251.071 307.387 261.445C334.188 271.82 367.944 249.152 382.783 210.815Z" fill="#FFB3AE"/>
<path d="M389.38 182.896C389.38 182.896 361.682 167.737 346.554 132.444C346.554 132.444 275.703 187.903 258.979 153.943C242.254 119.982 283.655 93.1825 288.429 116.262C288.429 116.262 326.59 54.4325 389.38 95.5695C452.171 136.707 389.38 182.896 389.38 182.896Z" fill="#002D53"/>
<path d="M399.657 199.559C395.627 210.796 387.024 218.004 380.452 215.648C373.88 213.292 371.819 202.271 375.864 191.018C379.894 179.781 388.497 172.573 395.069 174.929C401.625 177.285 403.687 188.306 399.657 199.559Z" fill="#FFB3AE"/>
<path d="M153.78 369.408H86.1072V461.245H153.78V369.408Z" fill="#6190E5"/>
<path d="M60.4236 415.629C60.4236 423.627 66.9491 430.106 74.9471 430.106C79.4576 430.106 83.4721 428.044 86.1071 424.836V444.304C82.6661 445.683 78.8686 446.396 74.9471 446.396C57.9281 446.396 44.1331 432.633 44.1331 415.614C44.1331 398.595 57.9281 384.799 74.9471 384.799C78.8841 384.799 82.6816 385.513 86.1071 386.892V406.36C83.4721 403.136 79.4576 401.09 74.9471 401.09C66.9336 401.121 60.4236 407.6 60.4236 415.629Z" fill="#6190E5"/>
<path d="M105.079 300.758C113.402 288.048 125.508 277.772 131.615 263.853C140.016 244.726 135.598 222.204 142 202.318C151.3 173.472 180.688 156.484 197.924 131.545C216.679 104.404 219.608 67.096 205.302 37.367C198.776 23.789 188.515 11.513 174.798 5.26649C158.554 -2.14251 138.745 -0.0500146 123.446 9.17248C108.148 18.395 97.3445 34.174 92.524 51.3635C80.6665 93.7715 103.606 139.481 94.4925 182.555C89.083 208.177 72.7459 230.45 67.2434 256.041C62.4539 278.299 66.9645 302.122 78.4655 321.668C81.829 327.387 91.222 345.476 96.2285 333.029C98.135 328.318 96.957 322.52 97.98 317.545C99.2355 311.608 101.746 305.842 105.079 300.758Z" fill="#F1F3F6"/>
<path d="M577.783 461.23H48.5505V486.169H577.783V461.23Z" fill="#D18C7E"/>
<path d="M542.148 486.169C445.754 555.346 238.178 568.8 113.651 486.169H542.148Z" fill="#BC7F72"/>
<path d="M333.223 449.233C334.835 455.821 330.604 461.215 323.815 461.215H166.986C160.197 461.215 153.315 455.821 151.703 449.233L123.09 332.565C121.478 325.977 125.709 320.583 132.498 320.583H289.327C296.116 320.583 302.998 325.977 304.61 332.565L333.223 449.233Z" fill="white"/>
<path d="M243.572 392.549C245.323 402.082 238.999 409.816 229.467 409.816C219.934 409.816 210.774 402.082 209.038 392.549C207.286 383.017 213.61 375.282 223.143 375.282C232.675 375.282 241.836 383.017 243.572 392.549Z" fill="#DFEAF7"/>
</svg>
